<svg width="59" height="53" viewBox="0 0 59 53" fill="none" xmlns="http://www.w3.org/2000/svg">
<path d="M52.5556 10.3556H6.33333C3.38781 10.3556 1 12.8687 1 15.9689V34.68C1 37.7802 3.38781 40.2933 6.33333 40.2933H52.5556C55.5011 40.2933 57.8889 37.7802 57.8889 34.68V15.9689C57.8889 12.8687 55.5011 10.3556 52.5556 10.3556Z" fill="white" stroke="#1D4ED8" stroke-width="2"/>
<path d="M54.3334 1H38.3334C36.3697 1 34.7778 2.67545 34.7778 4.74222V14.0978C34.7778 16.1645 36.3697 17.84 38.3334 17.84H54.3334C56.2971 17.84 57.8889 16.1645 57.8889 14.0978V4.74222C57.8889 2.67545 56.2971 1 54.3334 1Z" fill="#DBEAFE" stroke="#1D4ED8" stroke-width="2"/>
<path d="M17 52.4556C21.4183 52.4556 25 48.6858 25 44.0356C25 39.3853 21.4183 35.6156 17 35.6156C12.5817 35.6156 9 39.3853 9 44.0356C9 48.6858 12.5817 52.4556 17 52.4556Z" fill="#1E3A8A"/>
<path d="M45.4443 52.4556C49.8626 52.4556 53.4443 48.6858 53.4443 44.0356C53.4443 39.3853 49.8626 35.6156 45.4443 35.6156C41.0261 35.6156 37.4443 39.3853 37.4443 44.0356C37.4443 48.6858 41.0261 52.4556 45.4443 52.4556Z" fill="#1E3A8A"/>
<path d="M38.3333 15.9689H22.3333V21.5822H38.3333V15.9689Z" fill="#EF4444"/>
<g opacity="0.7" filter="url(#filter0_f_10_198)">
<path d="M34.7778 12.2267H25.8889V25.3244H34.7778V12.2267Z" fill="#F87171"/>
</g>
<path d="M25 18.7756H28.5556V15.0333H33.8889V18.7756H37.4444V24.3889H33.8889V28.1311H28.5556V24.3889H25V18.7756Z" fill="white"/>
<defs>
<filter id="filter0_f_10_198" x="13.8889" y="0.226665" width="32.8889" height="37.0978" filterUnits="userSpaceOnUse" color-interpolation-filters="sRGB">
<feFlood flood-opacity="0" result="BackgroundImageFix"/>
<feBlend mode="normal" in="SourceGraphic" in2="BackgroundImageFix" result="shape"/>
<feGaussianBlur stdDeviation="6" result="effect1_foregroundBlur_10_198"/>
</filter>
</defs>
</svg>
