<svg width="18" height="49" viewBox="0 0 18 49" fill="none" xmlns="http://www.w3.org/2000/svg">
<path opacity="0.85" d="M14.2222 0H3.55556C1.59188 0 0 1.67545 0 3.74222V44.9067C0 46.9734 1.59188 48.6489 3.55556 48.6489H14.2222C16.1859 48.6489 17.7778 46.9734 17.7778 44.9067V3.74222C17.7778 1.67545 16.1859 0 14.2222 0Z" fill="#0F172A"/>
<path d="M8.889 16.84C11.8345 16.84 14.2223 14.3268 14.2223 11.2267C14.2223 8.1265 11.8345 5.61333 8.889 5.61333C5.94348 5.61333 3.55566 8.1265 3.55566 11.2267C3.55566 14.3268 5.94348 16.84 8.889 16.84Z" fill="#EF4444"/>
<path opacity="0.25" d="M8.889 29.9378C11.8345 29.9378 14.2223 27.4246 14.2223 24.3244C14.2223 21.2243 11.8345 18.7111 8.889 18.7111C5.94348 18.7111 3.55566 21.2243 3.55566 24.3244C3.55566 27.4246 5.94348 29.9378 8.889 29.9378Z" fill="#FBBF24"/>
<path opacity="0.25" d="M8.889 43.0356C11.8345 43.0356 14.2223 40.5224 14.2223 37.4222C14.2223 34.3221 11.8345 31.8089 8.889 31.8089C5.94348 31.8089 3.55566 34.3221 3.55566 37.4222C3.55566 40.5224 5.94348 43.0356 8.889 43.0356Z" fill="#22C55E"/>
</svg>
